<svg width="18" height="25" viewBox="0 0 18 25" fill="none" xmlns="http://www.w3.org/2000/svg">
<path id="Vector" d="M9 11.875C8.14752 11.875 7.32995 11.5458 6.72716 10.9597C6.12436 10.3737 5.78571 9.5788 5.78571 8.75C5.78571 7.9212 6.12436 7.12634 6.72716 6.54029C7.32995 5.95424 8.14752 5.625 9 5.625C9.85248 5.625 10.67 5.95424 11.2728 6.54029C11.8756 7.12634 12.2143 7.9212 12.2143 8.75C12.2143 9.16038 12.1311 9.56674 11.9696 9.94589C11.8081 10.325 11.5713 10.6695 11.2728 10.9597C10.9744 11.2499 10.62 11.4801 10.2301 11.6371C9.84008 11.7942 9.42211 11.875 9 11.875ZM9 0C6.61305 0 4.32387 0.921872 2.63604 2.56282C0.948211 4.20376 0 6.42936 0 8.75C0 15.3125 9 25 9 25C9 25 18 15.3125 18 8.75C18 6.42936 17.0518 4.20376 15.364 2.56282C13.6761 0.921872 11.3869 0 9 0Z" fill="#E2E2E2"/>
</svg>
