<svg width="22" height="25" viewBox="0 0 22 25" fill="none" xmlns="http://www.w3.org/2000/svg">
<path id="Vector" d="M4.88889 11.25H11V17.5H4.88889M19.5556 22.5H2.44444V8.75H19.5556M19.5556 2.5H18.3333V0H15.8889V2.5H6.11111V0H3.66667V2.5H2.44444C1.08778 2.5 0 3.625 0 5V22.5C0 23.163 0.257539 23.7989 0.715961 24.2678C1.17438 24.7366 1.79614 25 2.44444 25H19.5556C20.2039 25 20.8256 24.7366 21.284 24.2678C21.7425 23.7989 22 23.163 22 22.5V5C22 4.33696 21.7425 3.70107 21.284 3.23223C20.8256 2.76339 20.2039 2.5 19.5556 2.5Z" fill="#E2E2E2"/>
</svg>
