<svg width="17" height="16" viewBox="0 0 17 16" fill="none" xmlns="http://www.w3.org/2000/svg">
<path id="Vector" d="M7.98432 13.7767C8.30159 13.5857 8.69841 13.5857 9.01568 13.7767L12.3422 15.7789C13.0999 16.2349 14.0331 15.5554 13.8316 14.6943L12.9508 10.929C12.8661 10.5669 12.9893 10.1877 13.2708 9.94453L16.2059 7.40887C16.8754 6.83051 16.5193 5.73162 15.6378 5.65582L11.7685 5.32309C11.3999 5.29139 11.0789 5.0588 10.934 4.71841L9.42011 1.16167C9.07485 0.35053 7.92515 0.350532 7.57988 1.16167L6.06596 4.71841C5.92107 5.0588 5.6001 5.29139 5.23152 5.32309L1.35916 5.65608C0.478149 5.73184 0.1218 6.82985 0.790421 7.40853L3.72125 9.94512C4.00185 10.188 4.12489 10.5663 4.04085 10.9277L3.16424 14.698C2.96413 15.5586 3.89688 16.2369 4.65394 15.7812L7.98432 13.7767Z" fill="#B9B7B7"/>
</svg>
